<svg xmlns="http://www.w3.org/2000/svg" width="1em" height="1em" viewBox="0 0 31.512 24.495">
    <path d="M17.248 5.217V2.476a.758.758 0 0 0-1.3-.536L11.66 6.212a.758.758 0 0 0 0 1.087l4.271 4.271a.775.775 0 0 0 1.317-.551v-2.74a9.193 9.193 0 0 1 9.186 9.186 8.915 8.915 0 0 1-.674 3.445 1.471 1.471 0 0 0 .352 1.592 1.534 1.534 0 0 0 2.511-.521 11.984 11.984 0 0 0 .873-4.516A12.244 12.244 0 0 0 17.248 5.217zm0 21.433a9.193 9.193 0 0 1-9.186-9.186 8.915 8.915 0 0 1 .674-3.445 1.471 1.471 0 0 0-.352-1.592 1.534 1.534 0 0 0-2.511.521A11.984 11.984 0 0 0 5 17.464a12.244 12.244 0 0 0 12.248 12.248v2.74a.758.758 0 0 0 1.3.536l4.271-4.271a.758.758 0 0 0 0-1.087l-4.271-4.271a.765.765 0 0 0-1.3.551z" transform="rotate(90 19.11 14.11)" style="fill:currentColor;fill-rule:evenodd"/>
</svg>
