<svg xmlns="http://www.w3.org/2000/svg" width="1em" height="1em" viewBox="0 0 21.074 21.074">
    <g data-name="Group 1767">
        <path data-name="Path 1275" d="M22.9 5.342h-1.367a3.514 3.514 0 0 0-6.625 0H4.171a1.171 1.171 0 0 0 0 2.342h10.737a3.514 3.514 0 0 0 6.625 0H22.9a1.171 1.171 0 0 0 0-2.342zm-4.68 2.341a1.171 1.171 0 1 0-1.171-1.171 1.171 1.171 0 0 0 1.171 1.171z" transform="translate(-3 -3)" style="fill:currentColor;fill-rule:evenodd"/>
        <path data-name="Path 1276" d="M3 12.512a1.171 1.171 0 0 1 1.171-1.171h1.37a3.514 3.514 0 0 1 6.625 0H22.9a1.171 1.171 0 1 1 0 2.342H12.166a3.514 3.514 0 0 1-6.625 0h-1.37A1.171 1.171 0 0 1 3 12.512zm5.854 1.171a1.171 1.171 0 1 0-1.171-1.171 1.171 1.171 0 0 0 1.171 1.171z" transform="translate(-3 -1.975)" style="fill:currentColor;fill-rule:evenodd"/>
        <path data-name="Path 1277" d="M4.171 17.342a1.171 1.171 0 1 0 0 2.342h10.737a3.514 3.514 0 0 0 6.625 0H22.9a1.171 1.171 0 0 0 0-2.342h-1.367a3.514 3.514 0 0 0-6.625 0zm15.22 1.171a1.171 1.171 0 1 1-1.171-1.171 1.171 1.171 0 0 1 1.171 1.17z" transform="translate(-3 -.951)" style="fill:currentColor;fill-rule:evenodd"/>
    </g>
</svg>
