<svg id="Capa_1" data-name="Capa 1" xmlns="http://www.w3.org/2000/svg" viewBox="0 0 250 250"><path d="M137.34,125.07a16.61,16.61,0,0,0,9.7,18l.18.08,34.53,14.95a69,69,0,0,1,41.48,58.06,166.72,166.72,0,0,1-.76,31.28l-135.35-45C47.67,189.25,27.18,145.62,42.63,107c12.75-31.82,33.71-64.38,67.67-76.2,0,0-41.42-15.65-74.16,0s-1.84,35-1.84,35C18.61,68.66,2.42,60.48,2.5,44.11a24.23,24.23,0,0,1,2.11-9.47C20.45-2.66,92-1.49,124.56,8.77c46.14,13.89,92.49,50,121.7,87.44a6,6,0,0,1-.18,7.55l-11.4,13.7a9.13,9.13,0,0,1-7,3.29h-53.3a10.69,10.69,0,0,1-8.11-3.7,16.54,16.54,0,0,0-28.91,8Z"/></svg>